<?xml version="1.0" encoding="UTF-8"?>
<svg width="113px" height="34px" viewBox="0 0 113 34" version="1.1" xmlns="http://www.w3.org/2000/svg" xmlns:xlink="http://www.w3.org/1999/xlink">
    <!-- Generator: Sketch 51 (57462) - http://www.bohemiancoding.com/sketch -->
    <title>claves_logo_wh</title>
    <desc>Created with Sketch.</desc>
    <defs></defs>
    <g id="Symbols" stroke="none" stroke-width="1" fill="none" fill-rule="evenodd">
        <g id="Footer/Sp" transform="translate(-104.000000, -395.000000)" fill="#FFFFFF" fill-rule="nonzero">
            <g id="claves_logo_wh" transform="translate(104.000000, 395.000000)">
                <path d="M31,2.602118 L21.2935421,2.602118 L21.2935421,0 L0,2.59909228 L0,31.3918306 L21.2874755,34 L21.2874755,31.3918306 L30.9939335,31.3918306 L31,2.602118 Z M29.4621331,29.8638427 L21.2996086,29.8638427 L21.2996086,4.14523449 L29.4621331,4.14523449 L29.4621331,29.8638427 Z" id="Shape"></path>
                <path d="M41.6826347,12.7914103 L41.6826347,10.8297156 C41.6826347,8.69297737 40.7065868,7.78154382 39.5868263,7.78154382 C37.8502994,7.78154382 37.2934132,8.68694138 37.2964072,10.5882763 L37.2964072,23.4117237 C37.2964072,25.3040046 37.8532934,26.2154382 39.5928144,26.2124202 C41.1556886,26.2124202 41.6886228,25.3070226 41.6886228,23.6531631 L41.6886228,20.6049913 L46,20.6049913 L46,23.5143355 C46,27.0876378 43.9191617,29.996982 39.6107784,30 C35.0898204,30 33.002994,27.0966918 33,23.5233894 L33,10.4886825 C33,6.91538015 35.0808383,4.00603598 39.5868263,4 C43.8952096,4 45.9850299,7.15078352 45.9850299,10.9413813 L45.9850299,12.7974463 L41.6826347,12.7914103 Z" id="Shape"></path>
                <polygon id="Shape" points="48.0178042 30 48 4 52.2818991 4 52.2818991 26.1071343 59 26.1071343 59 29.9937962"></polygon>
                <path d="M64.2835178,30 L60,30 L64.7293973,4 L70.2275523,4 L75,29.9937962 L70.7103321,29.9937962 L69.9200492,24.2304939 L65.0645756,24.2304939 L64.2835178,30 Z M65.704182,20.3469339 L69.2742927,20.3469339 L67.5184502,9.18014794 L67.4477245,9.18014794 L65.704182,20.3469339 Z" id="Shape"></path>
                <polygon id="Shape" points="82.7056207 4 87 4 81.7017792 30 77.3467448 30 72 4.00620377 76.2974121 4.00620377 79.4696725 22.043665 79.5394258 22.043665"></polygon>
                <polygon id="Shape" points="87.017906 30 87 4 98.5016165 4 98.5016165 7.87999523 91.2944541 7.87999523 91.2944541 14.5792676 96.8393434 14.5792676 96.8393434 18.4685673 91.3063914 18.4685673 91.3063914 26.1075987 99 26.1075987 99 29.9782894"></polygon>
                <path d="M108.770237,10.5837682 C108.600225,8.41030964 107.474634,7.77940292 106.521984,7.78242161 C105.161894,7.78242161 104.414431,8.68802934 104.414431,10.2698242 C104.414431,14.580517 112.994138,16.6422839 113,23.5128279 C113,27.6816421 110.282751,29.9969792 106.334386,29.9999979 C102.38602,30.0030166 100.178805,26.7820718 100,22.9966314 L104.015784,22.392893 C104.185795,24.9497254 105.188275,26.2115389 106.53664,26.2085202 C108.002255,26.2085202 108.984216,25.4025293 108.984216,23.8962018 C108.984216,18.8821537 100.40451,17.5569477 100.398647,10.3120859 C100.398647,6.28213148 102.775874,4.00301869 106.929425,4 C110.364825,4 112.410823,6.55381379 112.791883,10.1279456 L108.770237,10.5837682 Z" id="Shape"></path>
            </g>
        </g>
    </g>
</svg>